<svg id="Calque_4" data-name="Calque 4" xmlns="http://www.w3.org/2000/svg" viewBox="0 0 779.96 545.97"><defs><style>.cls-1{fill:#6abfeb;}.cls-2{fill:#fff;}.cls-3{fill:#1b92c5;}</style></defs><path class="cls-1" d="M259.38,345.37a97.92,97.92,0,0,1-20.27-1.76,31.35,31.35,0,0,1-13-5.62,20.79,20.79,0,0,1-6.89-10.12,50.49,50.49,0,0,1-2-15.39V302.22a51.22,51.22,0,0,1,2-15.47,20.73,20.73,0,0,1,6.89-10.18,31.22,31.22,0,0,1,13-5.63,97.92,97.92,0,0,1,20.27-1.76h29.36a99,99,0,0,1,20.44,1.76,30.69,30.69,0,0,1,13,5.7,21.16,21.16,0,0,1,6.89,10.25,51.24,51.24,0,0,1,2,15.46v10.13a50.49,50.49,0,0,1-2,15.39A20.79,20.79,0,0,1,322.16,338a31.41,31.41,0,0,1-13,5.62,99,99,0,0,1-20.44,1.76Z"/><path class="cls-1" d="M383.64,345.37a93.5,93.5,0,0,1-22.23-2.23q-8.9-2.22-14.23-7.11a26.84,26.84,0,0,1-7.56-12.8,73.16,73.16,0,0,1-2.22-19.47V265.7a73.38,73.38,0,0,1,2.22-19.38,26.85,26.85,0,0,1,7.56-12.89q5.34-4.89,14.23-7.11a93.5,93.5,0,0,1,22.23-2.23h46.05q13.51,0,22.4,2.23t14.23,7.11a26.77,26.77,0,0,1,7.56,12.89,73.38,73.38,0,0,1,2.22,19.38v38.06a73.16,73.16,0,0,1-2.22,19.47,26.76,26.76,0,0,1-7.56,12.8q-5.32,4.89-14.23,7.11t-22.4,2.23Z"/><path class="cls-1" d="M383.64,212.12q-13.35,0-22.23-2.22t-14.23-7.11A26.87,26.87,0,0,1,339.62,190a73.06,73.06,0,0,1-2.22-19.47v-38a73.28,73.28,0,0,1,2.22-19.38,26.88,26.88,0,0,1,7.56-12.9q5.34-4.89,14.23-7.11t22.23-2.22h46.05q13.51,0,22.4,2.22t14.23,7.11a26.81,26.81,0,0,1,7.56,12.9,73.28,73.28,0,0,1,2.22,19.38v38A73.06,73.06,0,0,1,473.88,190a26.8,26.8,0,0,1-7.56,12.81q-5.32,4.89-14.23,7.11t-22.4,2.22Z"/><path class="cls-1" d="M520.28,340.65a74,74,0,0,1-17.57-1.75,25.5,25.5,0,0,1-11.25-5.63,21.09,21.09,0,0,1-6-10.11,57.85,57.85,0,0,1-1.76-15.4V297.5A58.64,58.64,0,0,1,485.49,282a21.16,21.16,0,0,1,6-10.19,25.38,25.38,0,0,1,11.25-5.62,74,74,0,0,1,17.57-1.75h25.44a74.79,74.79,0,0,1,17.71,1.75,25.06,25.06,0,0,1,11.24,5.69,21.67,21.67,0,0,1,6,10.26,59.08,59.08,0,0,1,1.75,15.47v10.11a58.3,58.3,0,0,1-1.75,15.4,21.18,21.18,0,0,1-6,10.11,25.51,25.51,0,0,1-11.24,5.63,74.79,74.79,0,0,1-17.71,1.75Z"/><path class="cls-1" d="M520.28,254.29a73.41,73.41,0,0,1-17.57-1.76,25.38,25.38,0,0,1-11.25-5.62,21.07,21.07,0,0,1-6-10.12,57.77,57.77,0,0,1-1.76-15.39V211.14a58.59,58.59,0,0,1,1.76-15.46,21.11,21.11,0,0,1,6-10.19,25.38,25.38,0,0,1,11.25-5.62,73.93,73.93,0,0,1,17.57-1.76h25.44a74.73,74.73,0,0,1,17.71,1.76,25.06,25.06,0,0,1,11.24,5.69,21.67,21.67,0,0,1,6,10.26,59.05,59.05,0,0,1,1.75,15.46V221.4a58.22,58.22,0,0,1-1.75,15.39,21.16,21.16,0,0,1-6,10.12,25.4,25.4,0,0,1-11.24,5.62,74.21,74.21,0,0,1-17.71,1.76Z"/><path class="cls-1" d="M630.08,340.65a74,74,0,0,1-17.57-1.75,25.46,25.46,0,0,1-11.24-5.63,21.1,21.1,0,0,1-6-10.11,57.89,57.89,0,0,1-1.75-15.4V297.5A58.68,58.68,0,0,1,595.29,282a21.17,21.17,0,0,1,6-10.19,25.34,25.34,0,0,1,11.24-5.62,74,74,0,0,1,17.57-1.75h25.44a74.79,74.79,0,0,1,17.71,1.75,25.15,25.15,0,0,1,11.25,5.69,21.66,21.66,0,0,1,6,10.26,58.62,58.62,0,0,1,1.76,15.47v10.11a57.85,57.85,0,0,1-1.76,15.4,21.16,21.16,0,0,1-6,10.11,25.61,25.61,0,0,1-11.25,5.63,74.79,74.79,0,0,1-17.71,1.75Z"/><path class="cls-1" d="M522.62,167a59.08,59.08,0,0,1-14.08-1.41,20.4,20.4,0,0,1-9-4.51,16.85,16.85,0,0,1-4.78-8.11,46.19,46.19,0,0,1-1.41-12.34v-8.22A46.85,46.85,0,0,1,494.74,120a16.9,16.9,0,0,1,4.78-8.17,20.5,20.5,0,0,1,9-4.5,59.08,59.08,0,0,1,14.08-1.41H543a59.79,59.79,0,0,1,14.19,1.41,20.1,20.1,0,0,1,9,4.56,17.35,17.35,0,0,1,4.79,8.22,47,47,0,0,1,1.41,12.39v8.11A46.19,46.19,0,0,1,571,152.93a16.94,16.94,0,0,1-4.79,8.11,20.36,20.36,0,0,1-9,4.51A59.79,59.79,0,0,1,543,167Z"/><path class="cls-1" d="M622.82,249.32a59.2,59.2,0,0,1-14.08-1.41,20.36,20.36,0,0,1-9-4.51,16.89,16.89,0,0,1-4.79-8.11,46.2,46.2,0,0,1-1.4-12.33v-8.23a46.94,46.94,0,0,1,1.4-12.39,17,17,0,0,1,4.79-8.16,20.36,20.36,0,0,1,9-4.51,59.25,59.25,0,0,1,14.08-1.4h20.39a59.88,59.88,0,0,1,14.2,1.4,20.15,20.15,0,0,1,9,4.56,17.38,17.38,0,0,1,4.79,8.23,47.31,47.31,0,0,1,1.4,12.39V223a46.62,46.62,0,0,1-1.4,12.33,16.89,16.89,0,0,1-4.79,8.11,20.41,20.41,0,0,1-9,4.51,59.82,59.82,0,0,1-14.2,1.41Z"/><path class="cls-1" d="M379.2,212.57q-14.37,0-23.84-2.28T340.22,203a27.3,27.3,0,0,1-8-13.13,72.21,72.21,0,0,1-2.37-20v-39A72.29,72.29,0,0,1,332.18,111a27.29,27.29,0,0,1,8-13.23q5.68-5,15.14-7.29t23.84-2.28h49q14.19,0,23.65,2.28T467,97.78A27.21,27.21,0,0,1,475,111a72.29,72.29,0,0,1,2.37,19.87v39a72.21,72.21,0,0,1-2.37,20A27.22,27.22,0,0,1,467,203q-5.69,5-15.14,7.29t-23.65,2.28Z"/><path class="cls-2" d="M351.79,265.26A129.38,129.38,0,0,1,331,276.33q-8.82,3.51-15.61,3.23a20.93,20.93,0,0,1-12.11-4.31,44.36,44.36,0,0,1-10.2-11.76l-5.41-8.55a45.14,45.14,0,0,1-6.3-14.31,21.3,21.3,0,0,1,1.22-12.91q2.63-6.32,9.56-12.79a130.89,130.89,0,0,1,18.92-14.05l28.53-18a128.36,128.36,0,0,1,20.64-11q8.82-3.51,15.62-3.23A21,21,0,0,1,388,173a44.89,44.89,0,0,1,10.24,11.82l5.49,8.67A44.36,44.36,0,0,1,410,207.74a20.87,20.87,0,0,1-1.29,12.79q-2.65,6.25-9.6,12.73a129.77,129.77,0,0,1-18.76,14Z"/><path class="cls-3" d="M179.05,488.3V425.61a80.54,80.54,0,0,1,2.3-20.77,33.23,33.23,0,0,1,7.34-14.07,29.94,29.94,0,0,1,13-8.09A63,63,0,0,1,221,380.09h16v24.15H221.63a31.41,31.41,0,0,0-8.59,1,11.25,11.25,0,0,0-5.53,3.4,14.77,14.77,0,0,0-3,6.58,51.78,51.78,0,0,0-.9,10.58v62.5Z"/><path class="cls-3" d="M272.63,488.3a53.56,53.56,0,0,1-16-2,24.32,24.32,0,0,1-10-5.68,20.22,20.22,0,0,1-5.2-9A43.92,43.92,0,0,1,240,459.75V449.57a47.19,47.19,0,0,1,1.4-12.09,20.56,20.56,0,0,1,4.87-9,21.42,21.42,0,0,1,9.5-5.58A51.47,51.47,0,0,1,271,421h66.19v-2.4q0-10.38-3.46-13.87T322,401.25H297.56V380.09H322a60.49,60.49,0,0,1,18.24,2.39,27.72,27.72,0,0,1,19.31,19.66A63,63,0,0,1,361.77,420v26.34a87,87,0,0,1-1.9,19.78,27.76,27.76,0,0,1-6.6,13,26,26,0,0,1-12.55,7.09A77.76,77.76,0,0,1,321,488.3Zm64.54-48.91H273.63a9.58,9.58,0,0,0-6.78,2.29c-1.64,1.53-2.47,4.42-2.47,8.68v7.39q0,5.79,2.64,8t7.43,2.2h46.21a30.58,30.58,0,0,0,7.44-.79,10.39,10.39,0,0,0,5.11-2.91,13.12,13.12,0,0,0,3-5.89,39.21,39.21,0,0,0,1-9.77Z"/><path class="cls-3" d="M454.22,380.09c8.36,0,15.28.82,20.79,2.5a28.24,28.24,0,0,1,13.2,8c3.31,3.66,5.64,8.48,7,14.47a100.75,100.75,0,0,1,2.06,22v14.58a99.33,99.33,0,0,1-2.06,21.86,31.84,31.84,0,0,1-7,14.38,28.4,28.4,0,0,1-13.2,8q-8.26,2.49-20.79,2.5H404.35v32.34H379.76V427a99.47,99.47,0,0,1,2.07-22q2.07-9,7-14.47a28.22,28.22,0,0,1,13.21-8c5.49-1.68,12.42-2.5,20.79-2.5ZM472.7,427.8a59.9,59.9,0,0,0-.9-11.58,11.56,11.56,0,0,0-10.07-10,59.06,59.06,0,0,0-10.65-.8h-27.4a38.23,38.23,0,0,0-9.58,1,11.34,11.34,0,0,0-5.94,3.5,14.35,14.35,0,0,0-3,6.78,59.28,59.28,0,0,0-.83,10.88v35.33h46.9a66.25,66.25,0,0,0,10.56-.69,12.23,12.23,0,0,0,6.6-3.09,12.89,12.89,0,0,0,3.39-6.79,61.18,61.18,0,0,0,.9-11.78Z"/><path class="cls-3" d="M589.73,380.09c8.37,0,15.3.82,20.81,2.5a28.29,28.29,0,0,1,13.2,8q5,5.49,7,14.47a100.14,100.14,0,0,1,2.06,22v14.58a98.73,98.73,0,0,1-2.06,21.86,31.73,31.73,0,0,1-7,14.38,28.45,28.45,0,0,1-13.2,8q-8.26,2.49-20.81,2.5H539.88v32.34H515.29V427a99.53,99.53,0,0,1,2.06-22q2.07-9,7-14.47a28.32,28.32,0,0,1,13.21-8c5.5-1.68,12.44-2.5,20.79-2.5Zm18.5,47.71a58.88,58.88,0,0,0-.92-11.58,11.53,11.53,0,0,0-10.06-10,59,59,0,0,0-10.65-.8H559.2a38.23,38.23,0,0,0-9.58,1,11.34,11.34,0,0,0-5.94,3.5,14.35,14.35,0,0,0-3,6.78,58.41,58.41,0,0,0-.83,10.88v35.33h46.89a66.07,66.07,0,0,0,10.56-.69,12.2,12.2,0,0,0,6.6-3.09,12.74,12.74,0,0,0,3.38-6.79,60.14,60.14,0,0,0,.92-11.78Z"/><path class="cls-3" d="M675.24,445.16v5a38.46,38.46,0,0,0,.66,8,9.11,9.11,0,0,0,2.4,4.7,8.87,8.87,0,0,0,4.62,2.29,35.25,35.25,0,0,0,7.18.6h29V488.3h-29q-21.3,0-30.37-9.79t-9.08-31.34v-25a87.45,87.45,0,0,1,1.9-19.86,25.11,25.11,0,0,1,19.05-20.06q7.77-2.21,19.65-2.2H734.5a49.12,49.12,0,0,1,15.92,2.2,24.72,24.72,0,0,1,10.08,6.09,21.39,21.39,0,0,1,5.21,9.38,45.78,45.78,0,0,1,1.48,11.87v35.53ZM742.59,412c0-3.6-.75-6-2.23-7.2s-4.09-1.8-7.83-1.8H691.58a49.61,49.61,0,0,0-7.76.51,9.12,9.12,0,0,0-5,2.29,10.22,10.22,0,0,0-2.73,5.19,40.52,40.52,0,0,0-.83,9.19V426h67.35Z"/><path class="cls-3" d="M158.85,423.38H95l.08,25.3h38v.22a35.22,35.22,0,0,1-1,9.31,11.16,11.16,0,0,1-3.34,5.6,12.69,12.69,0,0,1-6.06,2.68,50.17,50.17,0,0,1-9.23.71H69.46a52.75,52.75,0,0,1-9.48-.71,13.35,13.35,0,0,1-6.16-2.6,10.06,10.06,0,0,1-3.24-5.29,33.46,33.46,0,0,1-.94-8.75V418.13a30.42,30.42,0,0,1,.94-8.22,11.24,11.24,0,0,1,3.17-5.36,12.76,12.76,0,0,1,6-2.92,44.88,44.88,0,0,1,9.66-.87h28.7v.16H142V380.09h-8.49v0H98.16v0H68.27a97.44,97.44,0,0,0-21.37,2q-8.55,2-13.67,6.32A23.32,23.32,0,0,0,26,399.82,60,60,0,0,0,23.83,417v33.77A59.88,59.88,0,0,0,26,468.06a23.31,23.31,0,0,0,7.26,11.36q5.13,4.33,13.67,6.31a96.16,96.16,0,0,0,21.37,2h46a98.22,98.22,0,0,0,21.62-2q8.63-2,13.76-6.31a23.47,23.47,0,0,0,7.27-11.36A60.26,60.26,0,0,0,159,450.78V424h-.18Z"/><path class="cls-2" d="M411.35,46.52c-32.9,0-61.7,14.88-83.41,43.07l-1.87,2.48-.11.15-1.41,1.86,0,0c-2.17,2.6-4.31,4.23-8.2,4.46l-7.09.42-.84-1.56c-4.43-.83-8.72-1.73-12.92-2.6-11.82-2.46-23-4.79-33.6-4.84h-.4c-40.21,0-81.52,28.35-82.67,82.53-.09,3.95-.35,16-14.8,20.13-33.52,9.68-50.56,38.16-45.58,76.19,3,23.22,11.57,37.71,26.83,45.63,6.69,3.46,13.87,5.46,19.67,5.48l36.59.1c9.68-3,20.33-5.19,31.57-7.47,24.94-5,53.22-10.77,79.47-28.17,45.57-30.2,87.38-55.08,116.81-82.65C527.43,109.78,476.6,72.86,477,68.61a8.83,8.83,0,0,0-.08-1.86,90.14,90.14,0,0,0-21.56-11.69A123.31,123.31,0,0,0,411.35,46.52Z"/><path class="cls-1" d="M233.07,312.52c-11.24,2.28-68.16,7.37-68.16,7.37-5.8,0-13-2-19.67-5.48C130,306.49,121.46,292,118.41,268.78c-5-38,12.06-66.51,45.58-76.19,14.45-4.16,14.71-16.18,14.8-20.13,1.15-54.18,42.46-82.53,82.67-82.53h.4c10.61,0,21.78,2.38,33.6,4.84,4.2.87,8.49,1.77,12.92,2.6l.84,1.56,7.09-.42c3.89-.23,6-1.86,8.2-4.46l0,0L326,92.22l.11-.15,1.87-2.48c21.71-28.19,50.51-43.07,83.41-43.07a123.31,123.31,0,0,1,44,8.54,90.14,90.14,0,0,1,21.56,11.69c-1-7.93-13-42.44-65.57-42.44-39.18,0-74.71,18.07-100.38,50.94-3.72-.71-7.39-1.48-11-2.22-12.94-2.7-25.17-5.25-38-5.3h-.5c-50.92,0-103.23,35.69-104.87,103.9C113.06,184.77,90,223,96.4,271.67c4,30.63,16.64,51.06,38.62,62.45,9.87,5.12,20.46,7.95,29.82,8C164.84,342.1,258,307.48,233.07,312.52Z"/><path class="cls-3" d="M484.4,55.81a79.38,79.38,0,0,0-22-14.78c46.08,49.9-11.84,146.77-131.64,218.53-107.16,64.21-228.14,86.93-290.1,58.07.79.86,1.61,1.71,2.46,2.53,50.5,49.09,190.22,29.71,312.07-43.29S534.9,104.9,484.4,55.81Z"/></svg>