<svg id="Calque_4" data-name="Calque 4" xmlns="http://www.w3.org/2000/svg" viewBox="0 0 779.96 545.97"><defs><style>.cls-1{fill:#6abfeb;}.cls-2{fill:#fff;}.cls-3{fill:#1b92c5;}</style></defs><path class="cls-1" d="M265.28,454.9a112.63,112.63,0,0,1-23.51-2.06q-9.41-2-15-6.56a24.29,24.29,0,0,1-8-11.82,59.28,59.28,0,0,1-2.35-18v-12a60,60,0,0,1,2.35-18.06,24.24,24.24,0,0,1,8-11.9q5.64-4.53,15-6.58a113.39,113.39,0,0,1,23.51-2.05h34A114.36,114.36,0,0,1,323,368q9.4,2.06,15.05,6.66a24.75,24.75,0,0,1,8,12,60.11,60.11,0,0,1,2.35,18.06v11.83a59.28,59.28,0,0,1-2.35,18,24.29,24.29,0,0,1-8,11.82q-5.64,4.52-15.05,6.56a113.59,113.59,0,0,1-23.68,2.06Z"/><path class="cls-1" d="M410.06,454.9q-15.48,0-25.8-2.59t-16.51-8.26A31.13,31.13,0,0,1,359,429.16q-2.58-9.2-2.58-22.64V362.28A85.33,85.33,0,0,1,359,339.74a31.13,31.13,0,0,1,8.78-15q6.18-5.69,16.51-8.27t25.8-2.58h53.46q15.68,0,26,2.58T506,324.75a31.12,31.12,0,0,1,8.77,15,85.33,85.33,0,0,1,2.58,22.54v44.24q0,13.44-2.58,22.64A31.12,31.12,0,0,1,506,444.05q-6.19,5.68-16.52,8.26t-26,2.59Z"/><path class="cls-1" d="M410.06,299.9q-15.48,0-25.8-2.59T367.75,289A31.05,31.05,0,0,1,359,274.16q-2.58-9.2-2.58-22.64V207.28A85.33,85.33,0,0,1,359,184.74a31.13,31.13,0,0,1,8.78-15q6.18-5.69,16.51-8.27t25.8-2.58h53.46q15.68,0,26,2.58T506,169.75a31.12,31.12,0,0,1,8.77,15,85.33,85.33,0,0,1,2.58,22.54v44.24q0,13.44-2.58,22.64A31,31,0,0,1,506,289q-6.19,5.68-16.52,8.27t-26,2.59Z"/><path class="cls-1" d="M568,448.9a85.25,85.25,0,0,1-20.47-2.06,29.63,29.63,0,0,1-13.11-6.56,24.6,24.6,0,0,1-7-11.82,67.48,67.48,0,0,1-2.05-18v-12a68.35,68.35,0,0,1,2.05-18.06,24.62,24.62,0,0,1,7-11.9A29.64,29.64,0,0,1,547.51,362,85.82,85.82,0,0,1,568,359.9h29.65A86.87,86.87,0,0,1,618.28,362a29.27,29.27,0,0,1,13.1,6.65,25.21,25.21,0,0,1,7,12,68.89,68.89,0,0,1,2,18.07v11.82a67.94,67.94,0,0,1-2,18,24.69,24.69,0,0,1-7,11.82,29.7,29.7,0,0,1-13.1,6.56,86.29,86.29,0,0,1-20.65,2.06Z"/><path class="cls-1" d="M568,348.9a85.25,85.25,0,0,1-20.47-2.06,29.63,29.63,0,0,1-13.11-6.56,24.58,24.58,0,0,1-7-11.83,67.35,67.35,0,0,1-2.05-18v-12a68.35,68.35,0,0,1,2.05-18.06,24.62,24.62,0,0,1,7-11.9A29.64,29.64,0,0,1,547.51,262,85.82,85.82,0,0,1,568,259.9h29.65A86.87,86.87,0,0,1,618.28,262a29.27,29.27,0,0,1,13.1,6.65,25.25,25.25,0,0,1,7,12,68.76,68.76,0,0,1,2,18.06v11.82a67.8,67.8,0,0,1-2,18,24.68,24.68,0,0,1-7,11.83,29.7,29.7,0,0,1-13.1,6.56,86.29,86.29,0,0,1-20.65,2.06Z"/><path class="cls-1" d="M696,448.9a85.34,85.34,0,0,1-20.48-2.06,29.59,29.59,0,0,1-13.1-6.56,24.6,24.6,0,0,1-7-11.82,67.48,67.48,0,0,1-2.05-18v-12a68.35,68.35,0,0,1,2.05-18.06,24.62,24.62,0,0,1,7-11.9A29.6,29.6,0,0,1,675.5,362,85.91,85.91,0,0,1,696,359.9h29.65A86.72,86.72,0,0,1,746.27,362a29.26,29.26,0,0,1,13.11,6.65,25.12,25.12,0,0,1,7,12,68.43,68.43,0,0,1,2,18.07v11.82a67.48,67.48,0,0,1-2,18,24.6,24.6,0,0,1-7,11.82,29.68,29.68,0,0,1-13.11,6.56,86.14,86.14,0,0,1-20.64,2.06Z"/><path class="cls-1" d="M571.47,246.9a68.54,68.54,0,0,1-16.39-1.64A23.59,23.59,0,0,1,544.6,240a19.63,19.63,0,0,1-5.57-9.43,53.4,53.4,0,0,1-1.64-14.35v-9.56a54.1,54.1,0,0,1,1.64-14.4,19.67,19.67,0,0,1,5.57-9.5,23.69,23.69,0,0,1,10.48-5.24,69.06,69.06,0,0,1,16.39-1.64h23.72a69.74,69.74,0,0,1,16.51,1.64,23.34,23.34,0,0,1,10.48,5.3,20.25,20.25,0,0,1,5.58,9.56,55.17,55.17,0,0,1,1.63,14.41v9.43a54.26,54.26,0,0,1-1.63,14.35,19.73,19.73,0,0,1-5.58,9.43,23.59,23.59,0,0,1-10.48,5.24,69.22,69.22,0,0,1-16.51,1.64Z"/><path class="cls-1" d="M687.47,342.9a68.54,68.54,0,0,1-16.39-1.64A23.68,23.68,0,0,1,660.59,336a19.7,19.7,0,0,1-5.56-9.43,53.37,53.37,0,0,1-1.64-14.34v-9.57A54.23,54.23,0,0,1,655,288.27a19.71,19.71,0,0,1,5.56-9.49,23.68,23.68,0,0,1,10.49-5.24,68.54,68.54,0,0,1,16.39-1.64h23.72a69.22,69.22,0,0,1,16.51,1.64,23.24,23.24,0,0,1,10.48,5.3,20.09,20.09,0,0,1,5.57,9.57,54.6,54.6,0,0,1,1.64,14.41v9.43a53.78,53.78,0,0,1-1.64,14.34,19.63,19.63,0,0,1-5.57,9.43,23.59,23.59,0,0,1-10.48,5.24,69.22,69.22,0,0,1-16.51,1.64Z"/><path class="cls-1" d="M404,299.9q-16.77,0-27.79-2.66t-17.64-8.5a31.75,31.75,0,0,1-9.37-15.31q-2.76-9.46-2.76-23.28v-45.5q0-13.6,2.76-23.17a31.77,31.77,0,0,1,9.37-15.42q6.62-5.85,17.64-8.5T404,154.9h57.11q16.53,0,27.56,2.66t17.64,8.5a31.7,31.7,0,0,1,9.37,15.42q2.76,9.56,2.76,23.17v45.5q0,13.82-2.76,23.28a31.67,31.67,0,0,1-9.37,15.31q-6.61,5.85-17.64,8.5t-27.56,2.66Z"/><path class="cls-2" d="M372.54,361.49q-13.94,8.81-24.19,12.88t-18.16,3.76a24.32,24.32,0,0,1-14.09-5q-6.17-4.69-11.86-13.67L298,349.49a52.43,52.43,0,0,1-7.33-16.65,24.82,24.82,0,0,1,1.41-15q3.06-7.35,11.13-14.88a151.33,151.33,0,0,1,22-16.34l33.18-21a149,149,0,0,1,24-12.77q10.26-4.08,18.16-3.76a24.35,24.35,0,0,1,14.13,5.09q6.23,4.76,11.9,13.74L432.94,278q5.67,9,7.27,16.58a24.26,24.26,0,0,1-1.49,14.87q-3.11,7.29-11.17,14.81a150,150,0,0,1-21.82,16.22Z"/><path class="cls-2" d="M441.63,107.49c-38.2,0-71.64,17.28-96.84,50l-2.18,2.88-.12.17-1.64,2.17,0,0c-2.52,3-5,4.91-9.52,5.18l-8.24.49-1-1.82c-5.15-1-10.14-2-15-3-13.72-2.85-26.69-5.55-39-5.61h-.47c-46.68,0-94.64,32.91-96,95.82-.1,4.59-.4,18.54-17.18,23.38-38.92,11.23-58.71,44.3-52.92,88.46,3.53,26.95,13.43,43.78,31.15,53,7.77,4,16.1,6.35,22.84,6.37L198,425c11.24-3.53,23.6-6,36.65-8.68,29-5.86,61.8-12.5,92.27-32.7,52.91-35.07,101.46-64,135.63-96C576.41,181,517.39,138.08,517.86,133.14a10.39,10.39,0,0,0-.1-2.15,105,105,0,0,0-25-13.59C475.49,110.83,458.3,107.49,441.63,107.49Z"/><path class="cls-1" d="M234.06,418.51c-13.15,2.66-79.79,8.63-79.79,8.63-6.8,0-15.2-2.37-23-6.43-17.87-9.26-27.85-26.23-31.41-53.41-5.84-44.53,14.11-77.88,53.36-89.2,16.92-4.88,17.22-19,17.32-23.58,1.36-63.43,49.72-96.62,96.79-96.62h.47c12.43.06,25.5,2.78,39.34,5.66,4.92,1,9.95,2.07,15.14,3l1,1.83,8.3-.49c4.55-.26,7.06-2.18,9.6-5.22l0,0,1.65-2.19a1.83,1.83,0,0,0,.13-.16l2.2-2.91c25.41-33,59.13-50.43,97.64-50.43a144.4,144.4,0,0,1,51.54,10,105.47,105.47,0,0,1,25.24,13.69c-1.17-9.28-15.25-49.69-76.78-49.69-45.86,0-87.46,21.15-117.52,59.64-4.36-.84-8.65-1.73-12.86-2.6-15.16-3.16-29.48-6.14-44.52-6.21h-.59c-59.61,0-120.85,41.79-122.77,121.65-51,15.39-77.95,60.13-70.48,117.13,4.7,35.86,19.49,59.77,45.22,73.12,11.56,6,24,9.3,34.91,9.34C154.18,453.14,263.27,412.6,234.06,418.51Z"/><path class="cls-3" d="M526.79,117.88a92,92,0,0,0-25.56-17.2c53.59,58-13.77,170.71-153.11,254.19C223.47,429.54,82.76,456,10.69,422.41c.92,1,1.87,2,2.86,2.94,58.74,57.1,221.25,34.56,363-50.35S585.53,175,526.79,117.88Z"/></svg>